# xmcd CD database file
#
# Track frame offsets:
#	150
#	22797
#	47025
#	65695
#	79420
#	96920
#	125132
#	145287
#	176060
#	197747
#	217762
#	230925
#	254422
#	273112
#	298010
#	315097
#
# Disc length: 4512 seconds
#
# Revision: 0
# Processed by: cddbd v1.5PL3 Copyright (c) Steve Scherf et al.
# Submitted via: CDex 1.50
#
DISCID=ee119e10
DTITLE=Chris Tyle - Silver Leaf Jazz Band of New Orleans
DYEAR=1999
DGENRE=Jazz
TTITLE0=New Orleans Wiggle
TTITLE1=St. Louis Blues
TTITLE2=Stockyards Strut
TTITLE3=Red Man Blues
TTITLE4=Take Me To The Land Of Jazz
TTITLE5=Pontchartrain
TTITLE6=The Hot Tamale Man
TTITLE7=Ain't Nobody Got The Blues Like Me
TTITLE8=Yearning
TTITLE9=Messin' Around
TTITLE10=New Orleans Blues
TTITLE11=Down Where The Sun Goes Down
TTITLE12=Bouncing Around
TTITLE13=Mama's Gone, Goodbye
TTITLE14=Mandy Lee Blues
TTITLE15=Stepping On The Blues
EXTD=YEAR: 1999
EXTT0=
EXTT1=
EXTT2=
EXTT3=
EXTT4=
EXTT5=
EXTT6=
EXTT7=
EXTT8=
EXTT9=
EXTT10=
EXTT11=
EXTT12=
EXTT13=
EXTT14=
EXTT15=
PLAYORDER=
